I First would like to thank #NIBL@irc.rizon.net and Exiled Destiny for the download.

Episodes 1-12 and Specials 1-6

Video
ID                                       : 1
Format                                   : AVC
Codec ID                                 : V_MPEG4/ISO/AVC
Bit rate                                 : 1 324 Kbps
Nominal bit rate                         : 1 690 Kbps
Width                                    : 720 pixels
Height                                   : 480 pixels
Display aspect ratio                     : 16:9
Original frame rate                      : 29.970 fps
Scan type                                : Progressive
Writing library                          : x264 core 125 r2200

Audio #1
ID                                       : 2
Format                                   : AC-3
Duration                                 : 23mn 41s
Bit rate mode                            : Constant
Bit rate                                 : 448 Kbps
Channel(s)                               : 6 channels
Channel positions                        : Front: L C R, Side: L R, LFE
Sampling rate                            : 48.0 KHz
Bit depth                                : 16 bits
Stream size                              : 75.9 MiB (22%)
Language                                 : English

Audio #2
ID                                       : 3
Format                                   : AC-3
Duration                                 : 23mn 41s
Bit rate mode                            : Constant
Bit rate                                 : 192 Kbps
Channel(s)                               : 2 channels
Channel positions                        : Front: L R
Sampling rate                            : 48.0 KHz
Bit depth                                : 16 bits
Stream size                              : 32.5 MiB (10%)
Language                                 : Japanese

Text #1
ID                                       : 4
Format                                   : UTF-8
Codec ID                                 : S_TEXT/UTF8 srt
Codec ID/Info                            : UTF-8 Plain Text
Language                                 : English

Text #2
ID                                       : 5
Format                                   : UTF-8
Codec ID                                 : S_TEXT/UTF8 srt
Codec ID/Info                            : UTF-8 Plain Text
Language                                 : Japanese

Text #3
ID                                       : 6
Format                                   : VobSub
Codec ID                                 : S_VOBSUB
Codec ID/Info                            : The same subtitle format used on DVDs
Language                                 : English

Text #4
ID                                       : 7
Format                                   : VobSub
Codec ID                                 : S_VOBSUB
Codec ID/Info                            : The same subtitle format used on DVDs
Language                                 : Japanese
